<svg width="184" height="69" viewBox="0 0 184 69" fill="none" xmlns="http://www.w3.org/2000/svg">
<path d="M33.8698 66.464C33.8698 67.744 30.7018 68.384 24.3658 68.384C18.0298 68.384 14.8618 67.744 14.8618 66.464V18.272H3.34175C2.25375 18.272 1.48575 16.8 1.03775 13.856C0.84575 12.448 0.74975 11.008 0.74975 9.536C0.74975 8.064 0.84575 6.624 1.03775 5.216C1.48575 2.272 2.25375 0.799995 3.34175 0.799995H45.1018C46.1898 0.799995 46.9578 2.272 47.4058 5.216C47.5978 6.624 47.6938 8.064 47.6938 9.536C47.6938 11.008 47.5978 12.448 47.4058 13.856C46.9578 16.8 46.1898 18.272 45.1018 18.272H33.8698V66.464ZM54.3718 33.152C52.5798 29.952 51.6838 27.36 51.6838 25.376C51.6838 23.328 52.2278 22.016 53.3158 21.44C56.9638 19.84 61.9558 19.04 68.2918 19.04C74.6918 19.04 79.2038 20.544 81.8278 23.552C84.4518 26.496 85.7638 30.88 85.7638 36.704V51.872H89.0278C90.1158 51.872 90.9478 52.512 91.5238 53.792C92.1638 55.072 92.4837 56.832 92.4837 59.072C92.4837 61.312 91.9078 63.52 90.7558 65.696C89.6678 67.872 88.1638 68.96 86.2438 68.96C82.7878 68.96 80.0038 68.032 77.8918 66.176C76.9318 65.408 76.1958 64.48 75.6838 63.392C72.7398 67.104 68.1638 68.96 61.9558 68.96C57.2838 68.96 53.3478 67.296 50.1478 63.968C46.9477 60.64 45.3477 56.704 45.3477 52.16C45.3477 41.728 51.5878 36.512 64.0678 36.512H69.3477V35.552C69.3477 33.888 69.0598 32.832 68.4838 32.384C67.9718 31.872 66.7238 31.616 64.7398 31.616C62.3078 31.616 58.8518 32.128 54.3718 33.152ZM62.0518 50.816C62.0518 52.224 62.4358 53.312 63.2038 54.08C63.9718 54.784 64.9318 55.136 66.0838 55.136C67.2998 55.136 68.3878 54.656 69.3477 53.696V46.304H66.6598C63.5878 46.304 62.0518 47.808 62.0518 50.816ZM98.0135 50.72C103.197 53.856 107.293 55.424 110.301 55.424C112.221 55.424 113.181 54.752 113.181 53.408C113.181 52.448 111.517 51.2 108.189 49.664C100.189 46.4 96.1895 41.056 96.1895 33.632C96.1895 28.896 97.9175 25.28 101.373 22.784C104.829 20.288 108.957 19.04 113.757 19.04C118.621 19.04 122.717 19.552 126.045 20.576C129.437 21.6 131.133 22.944 131.133 24.608C131.133 26.016 130.429 27.872 129.022 30.176C127.678 32.48 126.75 33.728 126.237 33.92C123.485 32.384 120.509 31.616 117.309 31.616C115.581 31.616 114.717 32.224 114.717 33.44C114.717 34.208 115.037 34.88 115.677 35.456C116.381 35.968 117.629 36.64 119.421 37.472C121.213 38.24 122.685 38.944 123.837 39.584C125.053 40.224 126.397 41.12 127.869 42.272C130.941 44.704 132.477 47.872 132.477 51.776C132.477 56.896 130.781 61.056 127.389 64.256C123.997 67.392 118.877 68.96 112.029 68.96C107.485 68.96 103.357 68.192 99.6455 66.656C95.9335 65.12 94.0775 63.008 94.0775 60.32C94.0775 58.528 94.4935 56.64 95.3255 54.656C96.2215 52.672 97.1175 51.36 98.0135 50.72ZM137.296 1.568C137.296 0.543999 140.208 0.0319996 146.032 0.0319996C151.472 0.223997 154.192 0.639996 154.192 1.27999V38.144L163.696 20.576C164.144 19.616 166.864 19.136 171.856 19.136C176.848 19.136 180.048 19.456 181.456 20.096L168.976 40.448L183.376 67.424C183.504 67.68 182.288 67.872 179.728 68C177.232 68.192 175.152 68.288 173.488 68.288C167.344 68.288 164.048 68 163.6 67.424L154.096 46.112V67.328C154.096 68.16 151.28 68.576 145.648 68.576C140.08 68.576 137.296 68.192 137.296 67.424V1.568Z" fill="black"/>
<path d="M14.8618 18.272H19.8618V13.272H14.8618V18.272ZM1.03775 13.856L-3.9164 14.5316L-3.91117 14.5699L-3.90534 14.6082L1.03775 13.856ZM1.03775 5.216L-3.90534 4.46379L-3.91117 4.50207L-3.9164 4.54043L1.03775 5.216ZM47.4058 5.216L52.3599 4.54043L52.3547 4.50206L52.3488 4.46379L47.4058 5.216ZM47.4058 13.856L52.3488 14.6082L52.3547 14.5699L52.3599 14.5316L47.4058 13.856ZM33.8698 18.272V13.272H28.8698V18.272H33.8698ZM28.8698 66.464C28.8698 64.3238 30.3158 63.2513 30.6842 63.028C31.0186 62.8254 31.0861 62.8853 30.5037 63.003C29.424 63.2211 27.4537 63.384 24.3658 63.384V73.384C27.6138 73.384 30.3955 73.2269 32.4838 72.805C33.4854 72.6027 34.7409 72.2626 35.8673 71.58C37.0277 70.8767 38.8698 69.2442 38.8698 66.464H28.8698ZM24.3658 63.384C21.2778 63.384 19.3075 63.2211 18.2279 63.003C17.6454 62.8853 17.7129 62.8254 18.0473 63.028C18.4157 63.2513 19.8618 64.3238 19.8618 66.464H9.86175C9.86175 69.2442 11.7038 70.8767 12.8642 71.58C13.9906 72.2626 15.2461 72.6027 16.2477 72.805C18.336 73.2269 21.1177 73.384 24.3658 73.384V63.384ZM19.8618 66.464V18.272H9.86175V66.464H19.8618ZM14.8618 13.272H3.34175V23.272H14.8618V13.272ZM3.34175 13.272C4.30003 13.272 5.12435 13.6277 5.69272 14.0785C6.1845 14.4685 6.37171 14.8342 6.38267 14.8552C6.40286 14.8939 6.34498 14.7898 6.25433 14.4606C6.16716 14.144 6.07156 13.6999 5.98084 13.1038L-3.90534 14.6082C-3.65328 16.2646 -3.24876 18.0135 -2.48317 19.4808C-1.73594 20.913 0.0598199 23.272 3.34175 23.272V13.272ZM5.9919 13.1804C5.8315 12.0042 5.74975 10.7901 5.74975 9.536H-4.25025C-4.25025 11.2259 -4.14 12.8918 -3.9164 14.5316L5.9919 13.1804ZM5.74975 9.536C5.74975 8.2819 5.8315 7.06782 5.9919 5.89156L-3.9164 4.54043C-4.14 6.18017 -4.25025 7.84609 -4.25025 9.536H5.74975ZM5.98084 5.96821C6.07156 5.37209 6.16716 4.92796 6.25433 4.6114C6.34498 4.28219 6.40286 4.17813 6.38267 4.21683C6.37171 4.23783 6.1845 4.60345 5.69272 4.99348C5.12435 5.44426 4.30003 5.8 3.34175 5.8V-4.2C0.0598199 -4.2 -1.73594 -1.84103 -2.48317 -0.408834C-3.24876 1.05853 -3.65328 2.80739 -3.90534 4.46379L5.98084 5.96821ZM3.34175 5.8H45.1018V-4.2H3.34175V5.8ZM45.1018 5.8C44.1435 5.8 43.3192 5.44426 42.7508 4.99348C42.259 4.60345 42.0718 4.23783 42.0608 4.21682C42.0406 4.17813 42.0985 4.28219 42.1892 4.6114C42.2763 4.92796 42.3719 5.37209 42.4627 5.96821L52.3488 4.46379C52.0968 2.80739 51.6923 1.05853 50.9267 -0.408834C50.1794 -1.84103 48.3837 -4.2 45.1018 -4.2V5.8ZM42.4516 5.89157C42.612 7.06783 42.6938 8.2819 42.6938 9.536H52.6938C52.6938 7.84609 52.5835 6.18017 52.3599 4.54043L42.4516 5.89157ZM42.6938 9.536C42.6938 10.7901 42.612 12.0042 42.4516 13.1804L52.3599 14.5316C52.5835 12.8918 52.6938 11.2259 52.6938 9.536H42.6938ZM42.4627 13.1038C42.3719 13.6999 42.2763 14.144 42.1892 14.4606C42.0985 14.7898 42.0406 14.8939 42.0608 14.8552C42.0718 14.8342 42.259 14.4685 42.7508 14.0785C43.3192 13.6277 44.1435 13.272 45.1018 13.272V23.272C48.3837 23.272 50.1794 20.913 50.9267 19.4808C51.6923 18.0135 52.0968 16.2646 52.3488 14.6082L42.4627 13.1038ZM45.1018 13.272H33.8698V23.272H45.1018V13.272ZM28.8698 18.272V66.464H38.8698V18.272H28.8698ZM54.3718 33.152L50.0092 35.595L51.8377 38.8602L55.4859 38.0263L54.3718 33.152ZM53.3158 21.44L51.3074 16.8611L51.1389 16.935L50.9763 17.0211L53.3158 21.44ZM81.8278 23.552L78.0599 26.8388L78.0774 26.8589L78.0952 26.8789L81.8278 23.552ZM85.7638 51.872H80.7638V56.872H85.7638V51.872ZM91.5238 53.792L86.9641 55.8438L87.006 55.9368L87.0516 56.0281L91.5238 53.792ZM90.7558 65.696L86.3368 63.3566L86.3096 63.4079L86.2836 63.4599L90.7558 65.696ZM77.8918 66.176L81.1923 62.4202L81.1055 62.3439L81.0152 62.2717L77.8918 66.176ZM75.6838 63.392L80.2078 61.263L76.7754 53.9691L71.7663 60.285L75.6838 63.392ZM50.1478 63.968L53.7519 60.5025L50.1478 63.968ZM69.3477 36.512V41.512H74.3477V36.512H69.3477ZM68.4838 32.384L64.9482 35.9195L65.1683 36.1396L65.414 36.3308L68.4838 32.384ZM63.2038 54.08L59.6682 57.6155L59.745 57.6924L59.8251 57.7658L63.2038 54.08ZM69.3477 53.696L72.8833 57.2315L74.3477 55.7671V53.696H69.3477ZM69.3477 46.304H74.3477V41.304H69.3477V46.304ZM58.7343 30.709C57.0606 27.7202 56.6838 26.05 56.6838 25.376H46.6838C46.6838 28.67 48.0989 32.1838 50.0092 35.595L58.7343 30.709ZM56.6838 25.376C56.6838 25.0797 56.7038 24.8861 56.7215 24.7771C56.7393 24.6672 56.7489 24.6783 56.7105 24.7711C56.6698 24.8693 56.5742 25.0602 56.3844 25.2798C56.1884 25.5065 55.939 25.7087 55.6552 25.8589L50.9763 17.0211C47.3577 18.9368 46.6838 22.7733 46.6838 25.376H56.6838ZM55.3241 26.0189C58.075 24.8124 62.2849 24.04 68.2918 24.04V14.04C61.6266 14.04 55.8525 14.8676 51.3074 16.8611L55.3241 26.0189ZM68.2918 24.04C74.1034 24.04 76.8316 25.4308 78.0599 26.8388L85.5956 20.2652C81.5759 15.6572 75.2801 14.04 68.2918 14.04V24.04ZM78.0952 26.8789C79.589 28.5549 80.7638 31.5349 80.7638 36.704H90.7638C90.7638 30.2251 89.3145 24.4371 85.5603 20.2251L78.0952 26.8789ZM80.7638 36.704V51.872H90.7638V36.704H80.7638ZM85.7638 56.872H89.0278V46.872H85.7638V56.872ZM89.0278 56.872C88.5124 56.872 87.911 56.6934 87.4192 56.3151C86.9985 55.9915 86.905 55.7124 86.9641 55.8438L96.0834 51.7402C95.5665 50.5916 94.769 49.3525 93.5163 48.3889C92.1925 47.3706 90.6312 46.872 89.0278 46.872V56.872ZM87.0516 56.0281C87.2029 56.3306 87.4837 57.2132 87.4837 59.072H97.4837C97.4837 56.4508 97.1246 53.8134 95.9959 51.5559L87.0516 56.0281ZM87.4837 59.072C87.4837 60.4178 87.1458 61.8284 86.3368 63.3566L95.1747 68.0354C96.6697 65.2116 97.4837 62.2062 97.4837 59.072H87.4837ZM86.2836 63.4599C85.9919 64.0434 85.8097 64.1445 85.8812 64.0929C85.9217 64.0635 85.9956 64.0213 86.0916 63.9908C86.1859 63.9608 86.2453 63.96 86.2438 63.96V73.96C90.5933 73.96 93.5624 71.263 95.2279 67.9321L86.2836 63.4599ZM86.2438 63.96C83.7125 63.96 82.1952 63.3015 81.1923 62.4202L74.5912 69.9318C77.8123 72.7625 81.863 73.96 86.2438 73.96V63.96ZM81.0152 62.2717C80.6377 61.9697 80.3872 61.6442 80.2078 61.263L71.1597 65.521C72.0043 67.3158 73.2258 68.8463 74.7683 70.0803L81.0152 62.2717ZM71.7663 60.285C70.0487 62.4506 67.1492 63.96 61.9558 63.96V73.96C69.1783 73.96 75.4308 71.7574 79.6012 66.499L71.7663 60.285ZM61.9558 63.96C58.6255 63.96 55.9966 62.8369 53.7519 60.5025L46.5436 67.4335C50.6989 71.7551 55.942 73.96 61.9558 73.96V63.96ZM53.7519 60.5025C51.4315 58.0892 50.3477 55.3889 50.3477 52.16H40.3477C40.3477 58.0191 42.464 63.1908 46.5436 67.4335L53.7519 60.5025ZM50.3477 52.16C50.3477 47.9736 51.5571 45.6624 53.2345 44.2603C55.0835 42.7146 58.4018 41.512 64.0678 41.512V31.512C57.2537 31.512 51.212 32.9174 46.821 36.5877C42.2584 40.4016 40.3477 45.9144 40.3477 52.16H50.3477ZM64.0678 41.512H69.3477V31.512H64.0678V41.512ZM74.3477 36.512V35.552H64.3477V36.512H74.3477ZM74.3477 35.552C74.3477 34.4806 74.2604 33.314 73.9556 32.1964C73.6622 31.1207 73.0275 29.5838 71.5535 28.4372L65.414 36.3308C64.9587 35.9766 64.6818 35.5955 64.5262 35.3246C64.3752 35.0617 64.3202 34.8725 64.3079 34.8276C64.2945 34.7785 64.3071 34.8084 64.3215 34.9445C64.3356 35.077 64.3477 35.2757 64.3477 35.552H74.3477ZM72.0193 28.8485C70.7218 27.5509 69.1129 27.1037 68.1685 26.91C67.0845 26.6876 65.9049 26.616 64.7398 26.616V36.616C65.1319 36.616 65.4474 36.6288 65.6949 36.6484C65.9463 36.6683 66.0939 36.6926 66.159 36.706C66.2329 36.7212 66.146 36.711 65.962 36.6307C65.7855 36.5537 65.3805 36.3518 64.9482 35.9195L72.0193 28.8485ZM64.7398 26.616C61.7358 26.616 57.8411 27.2301 53.2576 28.2777L55.4859 38.0263C59.8624 37.0259 62.8797 36.616 64.7398 36.616V26.616ZM57.0518 50.816C57.0518 53.14 57.7077 55.655 59.6682 57.6155L66.7393 50.5445C66.8201 50.6252 66.8908 50.7151 66.948 50.8072C67.0045 50.8984 67.0374 50.9748 67.0547 51.0239C67.0877 51.1175 67.0518 51.0738 67.0518 50.816H57.0518ZM59.8251 57.7658C61.6157 59.4071 63.824 60.136 66.0838 60.136V50.136C66.0213 50.136 66.0845 50.1275 66.221 50.1776C66.3658 50.2307 66.4944 50.3136 66.5824 50.3942L59.8251 57.7658ZM66.0838 60.136C68.7858 60.136 71.1051 59.0097 72.8833 57.2315L65.8122 50.1605C65.7081 50.2646 65.6976 50.2437 65.7935 50.2014C65.8388 50.1814 65.8932 50.1633 65.952 50.1511C66.0104 50.1389 66.0566 50.136 66.0838 50.136V60.136ZM74.3477 53.696V46.304H64.3477V53.696H74.3477ZM69.3477 41.304H66.6598V51.304H69.3477V41.304ZM66.6598 41.304C64.3792 41.304 61.7453 41.8622 59.7056 43.8594C57.6465 45.8757 57.0518 48.5143 57.0518 50.816H67.0518C67.0518 50.4749 67.097 50.3829 67.073 50.4533C67.0594 50.4934 67.0271 50.5744 66.963 50.6789C66.8979 50.7851 66.8109 50.8978 66.7019 51.0046C66.47 51.2316 66.2564 51.3192 66.1952 51.3392C66.1569 51.3517 66.2845 51.304 66.6598 51.304V41.304ZM98.0135 50.72L100.601 46.4419L97.7855 44.7384L95.1073 46.6513L98.0135 50.72ZM108.189 49.664L110.285 45.1242L110.183 45.077L110.078 45.0345L108.189 49.664ZM101.373 22.784L104.301 26.8374L104.301 26.8374L101.373 22.784ZM126.045 20.576L124.575 25.3549L124.588 25.3588L124.6 25.3626L126.045 20.576ZM129.022 30.176L124.755 27.5687L124.728 27.6124L124.703 27.6566L129.022 30.176ZM126.237 33.92L123.801 38.286L125.824 39.4152L127.993 38.6016L126.237 33.92ZM115.677 35.456L112.333 39.1725L112.526 39.3466L112.737 39.4997L115.677 35.456ZM119.421 37.472L117.316 42.007L117.383 42.0384L117.452 42.0677L119.421 37.472ZM123.837 39.584L121.409 43.9548L121.459 43.9823L121.509 44.0086L123.837 39.584ZM127.869 42.272L130.973 38.3518L130.962 38.3431L130.951 38.3345L127.869 42.272ZM127.389 64.256L130.784 67.9274L130.802 67.9103L130.821 67.893L127.389 64.256ZM99.6455 66.656L101.557 62.0359L99.6455 66.656ZM95.3255 54.656L90.7686 52.5981L90.7407 52.6598L90.7145 52.7224L95.3255 54.656ZM95.4255 54.9981C100.744 58.2154 105.843 60.424 110.301 60.424V50.424C108.744 50.424 105.651 49.4966 100.601 46.4419L95.4255 54.9981ZM110.301 60.424C111.691 60.424 113.625 60.2085 115.329 59.0162C117.357 57.5963 118.181 55.4348 118.181 53.408H108.181C108.181 53.1496 108.229 52.6828 108.487 52.1403C108.757 51.5728 109.163 51.1259 109.594 50.8238C110.338 50.3035 110.832 50.424 110.301 50.424V60.424ZM118.181 53.408C118.181 51.6969 117.446 50.3993 116.863 49.6247C116.268 48.8355 115.556 48.2191 114.933 47.752C113.685 46.8154 112.066 45.9464 110.285 45.1242L106.094 54.2038C107.641 54.9176 108.518 55.4406 108.933 55.752C109.143 55.9089 109.055 55.8805 108.876 55.6433C108.709 55.4207 108.181 54.6391 108.181 53.408H118.181ZM110.078 45.0345C106.676 43.6463 104.511 41.9735 103.192 40.2118C101.912 38.5014 101.189 36.3913 101.189 33.632H91.1895C91.1895 38.2967 92.4669 42.5706 95.1866 46.2042C97.868 49.7865 101.703 52.4177 106.301 54.2935L110.078 45.0345ZM101.189 33.632C101.189 30.2951 102.305 28.2787 104.301 26.8374L98.446 18.7306C93.5297 22.2813 91.1895 27.4969 91.1895 33.632H101.189ZM104.301 26.8374C106.799 25.033 109.87 24.04 113.757 24.04V14.04C108.045 14.04 102.86 15.543 98.446 18.7306L104.301 26.8374ZM113.757 24.04C118.305 24.04 121.871 24.5227 124.575 25.3549L127.516 15.7971C123.564 14.5813 118.938 14.04 113.757 14.04V24.04ZM124.6 25.3626C125.277 25.5669 125.788 25.7633 126.162 25.9371C126.542 26.1139 126.714 26.2371 126.756 26.2707C126.797 26.3028 126.636 26.1868 126.46 25.8757C126.266 25.5316 126.133 25.0855 126.133 24.608H136.133C136.133 21.8128 134.622 19.7449 132.967 18.4333C131.41 17.1993 129.454 16.3822 127.491 15.7894L124.6 25.3626ZM126.133 24.608C126.133 24.5129 126.149 24.707 125.931 25.2827C125.72 25.8383 125.351 26.5939 124.755 27.5687L133.288 32.7832C134.807 30.2969 136.133 27.4507 136.133 24.608H126.133ZM124.703 27.6566C124.068 28.7441 123.608 29.4497 123.305 29.8565C123.151 30.0635 123.107 30.0992 123.164 30.0425C123.196 30.0108 123.3 29.9085 123.474 29.7798C123.633 29.6619 123.975 29.4283 124.482 29.2383L127.993 38.6016C129.143 38.1706 129.912 37.437 130.235 37.1135C130.652 36.6968 131.02 36.2405 131.33 35.8235C131.955 34.9823 132.631 33.9119 133.34 32.6954L124.703 27.6566ZM128.674 29.554C125.166 27.5956 121.349 26.616 117.309 26.616V36.616C119.67 36.616 121.805 37.1724 123.801 38.286L128.674 29.554ZM117.309 26.616C116.012 26.616 114.145 26.8167 112.488 27.983C110.509 29.3753 109.717 31.4879 109.717 33.44H119.717C119.717 33.7269 119.665 34.2183 119.398 34.7824C119.119 35.372 118.699 35.8403 118.243 36.161C117.45 36.7193 116.879 36.616 117.309 36.616V26.616ZM109.717 33.44C109.717 35.8057 110.781 37.7759 112.333 39.1725L119.022 31.7395C119.116 31.8234 119.308 32.0265 119.472 32.3703C119.642 32.7275 119.717 33.1046 119.717 33.44H109.717ZM112.737 39.4997C113.867 40.3221 115.504 41.1659 117.316 42.007L121.527 32.937C119.755 32.114 118.896 31.6139 118.618 31.4123L112.737 39.4997ZM117.452 42.0677C119.154 42.7971 120.458 43.4265 121.409 43.9548L126.266 35.2132C124.913 34.4615 123.273 33.6829 121.391 32.8763L117.452 42.0677ZM121.509 44.0086C122.385 44.4695 123.474 45.1811 124.788 46.2095L130.951 38.3345C129.321 37.0589 127.722 35.9785 126.166 35.1594L121.509 44.0086ZM124.766 46.1922C126.645 47.6799 127.477 49.4063 127.477 51.776H137.477C137.477 46.3377 135.238 41.7281 130.973 38.3518L124.766 46.1922ZM127.477 51.776C127.477 55.669 126.245 58.4617 123.958 60.619L130.821 67.893C135.318 63.6503 137.477 58.123 137.477 51.776H127.477ZM123.995 60.5846C121.887 62.5336 118.215 63.96 112.029 63.96V73.96C119.54 73.96 126.108 72.2504 130.784 67.9274L123.995 60.5846ZM112.029 63.96C108.056 63.96 104.589 63.2903 101.557 62.0359L97.7337 71.2761C102.126 73.0937 106.915 73.96 112.029 73.96V63.96ZM101.557 62.0359C100.126 61.4438 99.4786 60.9076 99.2253 60.6194C99.0589 60.4301 99.0775 60.3895 99.0775 60.32H89.0775C89.0775 65.9804 93.2219 69.4091 97.7337 71.2761L101.557 62.0359ZM99.0775 60.32C99.0775 59.311 99.3108 58.0815 99.9365 56.5896L90.7145 52.7224C89.6762 55.1985 89.0775 57.745 89.0775 60.32H99.0775ZM99.8824 56.7139C100.251 55.8978 100.563 55.349 100.799 55.0038C101.049 54.6365 101.111 54.6523 100.92 54.7887L95.1073 46.6513C93.0795 48.0998 91.7365 50.4549 90.7686 52.5981L99.8824 56.7139ZM146.032 0.0319996L146.209 -4.96489L146.12 -4.968H146.032V0.0319996ZM154.192 38.144H149.192L158.59 40.5231L154.192 38.144ZM163.696 20.576L168.094 22.9551L168.164 22.8247L168.227 22.6904L163.696 20.576ZM181.456 20.096L185.719 22.7098L188.677 17.8858L183.525 15.5442L181.456 20.096ZM168.976 40.448L164.714 37.8342L163.217 40.2759L164.565 42.8026L168.976 40.448ZM183.376 67.424L187.848 65.188L187.819 65.1283L187.787 65.0694L183.376 67.424ZM179.728 68L179.479 63.0062L179.412 63.0096L179.345 63.0147L179.728 68ZM163.6 67.424L159.034 69.4604L159.281 70.0147L159.653 70.4937L163.6 67.424ZM154.096 46.112L158.663 44.0756L149.096 46.112H154.096ZM142.296 1.568C142.296 4.12456 140.382 5.20919 140.175 5.31848C139.851 5.48961 139.791 5.43801 140.346 5.34046C141.359 5.16234 143.189 5.032 146.032 5.032V-4.968C143.052 -4.968 140.513 -4.84234 138.614 -4.50846C137.713 -4.35001 136.562 -4.08161 135.51 -3.52648C134.574 -3.03319 132.296 -1.50056 132.296 1.568H142.296ZM145.856 5.02889C148.531 5.12329 150.334 5.26804 151.396 5.43053C151.973 5.51877 152.051 5.57219 151.873 5.50305C151.803 5.47591 151.337 5.29855 150.807 4.84363C150.247 4.36247 149.192 3.17189 149.192 1.27999H159.192C159.192 -0.7719 158.053 -2.11548 157.322 -2.74264C156.623 -3.34356 155.902 -3.65992 155.492 -3.81906C154.634 -4.1522 153.691 -4.33478 152.908 -4.45453C151.251 -4.70805 148.974 -4.86729 146.209 -4.96489L145.856 5.02889ZM149.192 1.27999V38.144H159.192V1.27999H149.192ZM158.59 40.5231L168.094 22.9551L159.299 18.1969L149.795 35.7649L158.59 40.5231ZM168.227 22.6904C167.599 24.0364 166.567 24.4796 166.527 24.4978C166.385 24.5627 166.463 24.5042 166.941 24.4199C167.872 24.2556 169.459 24.136 171.856 24.136V14.136C169.262 14.136 166.992 14.2564 165.203 14.5721C164.321 14.7278 163.324 14.9693 162.389 15.3942C161.557 15.7724 160.017 16.6356 159.165 18.4616L168.227 22.6904ZM171.856 24.136C174.266 24.136 176.132 24.2141 177.503 24.3512C179.015 24.5024 179.473 24.687 179.387 24.6478L183.525 15.5442C182.031 14.865 180.185 14.5696 178.498 14.4008C176.669 14.2179 174.439 14.136 171.856 14.136V24.136ZM177.194 17.4822L164.714 37.8342L173.239 43.0618L185.719 22.7098L177.194 17.4822ZM164.565 42.8026L178.965 69.7786L187.787 65.0694L173.387 38.0934L164.565 42.8026ZM178.904 69.66C178.511 68.8747 178.261 67.8344 178.448 66.6751C178.628 65.5591 179.146 64.7459 179.583 64.2423C180.338 63.3709 181.178 63.0376 181.317 62.9806C181.754 62.8006 182.022 62.783 181.78 62.8212C181.45 62.8734 180.728 62.9438 179.479 63.0062L179.978 72.9938C181.289 72.9282 182.455 72.8386 183.34 72.6988C183.706 72.641 184.415 72.5194 185.124 72.2274C185.398 72.1144 186.332 71.7231 187.14 70.7917C187.602 70.2581 188.136 69.4144 188.321 68.2674C188.513 67.0771 188.257 66.0053 187.848 65.188L178.904 69.66ZM179.345 63.0147C176.92 63.2013 174.978 63.288 173.488 63.288V73.288C175.327 73.288 177.545 73.1827 180.112 72.9853L179.345 63.0147ZM173.488 63.288C170.461 63.288 168.273 63.2159 166.843 63.091C166.112 63.027 165.731 62.9615 165.595 62.93C165.522 62.9133 165.655 62.9367 165.894 63.0406C166.028 63.099 166.839 63.4439 167.547 64.3543L159.653 70.4937C160.474 71.5481 161.485 72.028 161.909 72.2124C162.438 72.4423 162.951 72.5827 163.346 72.674C164.146 72.8585 165.057 72.973 165.973 73.053C167.84 73.2161 170.371 73.288 173.488 73.288V63.288ZM168.167 65.3876L158.663 44.0756L149.53 48.1484L159.034 69.4604L168.167 65.3876ZM149.096 46.112V67.328H159.096V46.112H149.096ZM149.096 67.328C149.096 65.8642 149.764 64.7714 150.37 64.1447C150.9 63.5969 151.406 63.3634 151.542 63.3028C151.815 63.1819 151.821 63.2339 151.254 63.3177C150.221 63.4702 148.407 63.576 145.648 63.576V73.576C148.521 73.576 150.932 73.4738 152.715 73.2103C153.556 73.0861 154.617 72.8781 155.594 72.4452C156.163 72.1931 159.096 70.806 159.096 67.328H149.096ZM145.648 63.576C142.917 63.576 141.108 63.4784 140.067 63.3349C139.497 63.2562 139.48 63.2045 139.73 63.3079C139.848 63.3569 140.355 63.5713 140.9 64.097C141.52 64.696 142.296 65.8308 142.296 67.424H132.296C132.296 69.2092 133.159 70.524 133.954 71.291C134.672 71.9847 135.44 72.3551 135.906 72.5481C136.852 72.9395 137.88 73.1278 138.701 73.2411C140.444 73.4816 142.811 73.576 145.648 73.576V63.576ZM142.296 67.424V1.568H132.296V67.424H142.296Z" fill="#367864"/>
</svg>
