<svg width="264" height="69" viewBox="0 0 264 69" fill="none" xmlns="http://www.w3.org/2000/svg">
<path d="M33.8698 66.464C33.8698 67.744 30.7018 68.384 24.3658 68.384C18.0298 68.384 14.8618 67.744 14.8618 66.464V18.272H3.34175C2.25375 18.272 1.48575 16.8 1.03775 13.856C0.84575 12.448 0.74975 11.008 0.74975 9.536C0.74975 8.064 0.84575 6.624 1.03775 5.216C1.48575 2.272 2.25375 0.799995 3.34175 0.799995H45.1018C46.1898 0.799995 46.9578 2.272 47.4058 5.216C47.5978 6.624 47.6938 8.064 47.6938 9.536C47.6938 11.008 47.5978 12.448 47.4058 13.856C46.9578 16.8 46.1898 18.272 45.1018 18.272H33.8698V66.464ZM70.379 67.904C70.379 68.352 67.467 68.576 61.643 68.576C55.819 68.448 52.907 68.192 52.907 67.808V35.936H50.315C49.291 35.936 48.459 35.328 47.819 34.112C47.243 32.832 46.955 31.264 46.955 29.408C46.955 22.496 49.003 19.04 53.099 19.04C55.979 19.04 58.379 19.936 60.299 21.728C62.219 23.456 63.179 25.44 63.179 27.68C64.523 25.056 66.315 22.976 68.555 21.44C70.859 19.84 73.195 19.04 75.563 19.04C79.275 19.04 81.515 20 82.283 21.92C82.475 22.432 82.571 23.2 82.571 24.224C82.571 25.184 82.251 26.944 81.611 29.504C81.035 32.064 80.427 33.92 79.787 35.072C79.147 36.224 78.763 36.8 78.635 36.8C78.507 36.8 77.899 36.576 76.811 36.128C75.787 35.616 74.859 35.36 74.027 35.36C71.595 35.36 70.379 37.28 70.379 41.12V67.904ZM91.5455 33.152C89.7535 29.952 88.8575 27.36 88.8575 25.376C88.8575 23.328 89.4015 22.016 90.4895 21.44C94.1375 19.84 99.1295 19.04 105.465 19.04C111.865 19.04 116.377 20.544 119.002 23.552C121.626 26.496 122.938 30.88 122.938 36.704V51.872H126.201C127.29 51.872 128.122 52.512 128.698 53.792C129.337 55.072 129.657 56.832 129.657 59.072C129.657 61.312 129.081 63.52 127.929 65.696C126.842 67.872 125.338 68.96 123.418 68.96C119.961 68.96 117.177 68.032 115.065 66.176C114.106 65.408 113.37 64.48 112.857 63.392C109.913 67.104 105.337 68.96 99.1295 68.96C94.4575 68.96 90.5215 67.296 87.3215 63.968C84.1215 60.64 82.5215 56.704 82.5215 52.16C82.5215 41.728 88.7615 36.512 101.241 36.512H106.521V35.552C106.521 33.888 106.233 32.832 105.658 32.384C105.145 31.872 103.897 31.616 101.913 31.616C99.4815 31.616 96.0255 32.128 91.5455 33.152ZM99.2255 50.816C99.2255 52.224 99.6095 53.312 100.377 54.08C101.145 54.784 102.105 55.136 103.257 55.136C104.473 55.136 105.561 54.656 106.521 53.696V46.304H103.833C100.761 46.304 99.2255 47.808 99.2255 50.816ZM148.915 44.192C148.915 50.464 151.283 53.6 156.019 53.6C159.091 53.6 161.651 52.992 163.699 51.776C164.659 51.776 165.427 53.44 166.003 56.768C166.643 60.032 166.963 62.272 166.963 63.488C166.963 64.64 166.803 65.408 166.483 65.792C163.091 67.904 158.451 68.96 152.563 68.96C146.675 68.96 141.651 66.784 137.491 62.432C133.395 58.016 131.347 52.032 131.347 44.48C131.347 36.864 133.363 30.72 137.395 26.048C141.491 21.376 146.899 19.04 153.619 19.04C160.403 19.04 165.107 20.672 167.731 23.936C168.307 24.64 168.595 25.696 168.595 27.104C168.595 28.448 168.339 30.112 167.827 32.096C166.675 36.192 165.171 38.56 163.315 39.2C163.059 39.264 162.675 39.296 162.163 39.296C161.715 39.296 161.139 38.912 160.435 38.144C157.939 35.648 155.923 34.4 154.387 34.4C152.915 34.4 151.635 35.168 150.547 36.704C149.459 38.24 148.915 40.736 148.915 44.192ZM171.939 1.568C171.939 0.543999 174.851 0.0319996 180.675 0.0319996C186.115 0.223997 188.835 0.639996 188.835 1.27999V38.144L198.339 20.576C198.787 19.616 201.507 19.136 206.499 19.136C211.491 19.136 214.691 19.456 216.099 20.096L203.619 40.448L218.019 67.424C218.147 67.68 216.931 67.872 214.371 68C211.875 68.192 209.795 68.288 208.131 68.288C201.987 68.288 198.691 68 198.243 67.424L188.739 46.112V67.328C188.739 68.16 185.923 68.576 180.291 68.576C174.723 68.576 171.939 68.192 171.939 67.424V1.568ZM225.66 33.152C223.868 29.952 222.972 27.36 222.972 25.376C222.972 23.328 223.516 22.016 224.604 21.44C228.252 19.84 233.244 19.04 239.58 19.04C245.98 19.04 250.492 20.544 253.116 23.552C255.74 26.496 257.052 30.88 257.052 36.704V51.872H260.316C261.404 51.872 262.236 52.512 262.812 53.792C263.452 55.072 263.772 56.832 263.772 59.072C263.772 61.312 263.196 63.52 262.044 65.696C260.956 67.872 259.452 68.96 257.532 68.96C254.076 68.96 251.292 68.032 249.18 66.176C248.22 65.408 247.484 64.48 246.972 63.392C244.028 67.104 239.452 68.96 233.244 68.96C228.572 68.96 224.636 67.296 221.436 63.968C218.236 60.64 216.636 56.704 216.636 52.16C216.636 41.728 222.876 36.512 235.356 36.512H240.636V35.552C240.636 33.888 240.348 32.832 239.772 32.384C239.26 31.872 238.012 31.616 236.028 31.616C233.596 31.616 230.14 32.128 225.66 33.152ZM233.34 50.816C233.34 52.224 233.724 53.312 234.492 54.08C235.26 54.784 236.22 55.136 237.372 55.136C238.588 55.136 239.676 54.656 240.636 53.696V46.304H237.948C234.876 46.304 233.34 47.808 233.34 50.816Z" fill="black"/>
<path d="M14.8618 18.272H20.8618V12.272H14.8618V18.272ZM1.03775 13.856L-4.90723 14.6667L-4.90095 14.7127L-4.89396 14.7587L1.03775 13.856ZM1.03775 5.216L-4.89396 4.31334L-4.90095 4.35928L-4.90723 4.40532L1.03775 5.216ZM47.4058 5.216L53.3507 4.40531L53.3445 4.35928L53.3375 4.31334L47.4058 5.216ZM47.4058 13.856L53.3375 14.7587L53.3445 14.7127L53.3507 14.6667L47.4058 13.856ZM33.8698 18.272V12.272H27.8698V18.272H33.8698ZM27.8698 66.464C27.8698 65.2925 28.2592 64.2462 28.8224 63.4498C29.3343 62.7258 29.8923 62.3387 30.1659 62.1728C30.6464 61.8816 30.8462 61.9136 30.3056 62.0228C29.3268 62.2206 27.4377 62.384 24.3658 62.384V74.384C27.6298 74.384 30.4927 74.2274 32.6819 73.7852C33.7253 73.5744 35.1131 73.2064 36.3856 72.4352C37.6989 71.6392 39.8698 69.7363 39.8698 66.464H27.8698ZM24.3658 62.384C21.2938 62.384 19.4047 62.2206 18.4259 62.0228C17.8853 61.9136 18.0851 61.8816 18.5656 62.1728C18.8392 62.3387 19.3972 62.7258 19.9091 63.4498C20.4723 64.2462 20.8618 65.2925 20.8618 66.464H8.86175C8.86175 69.7363 11.0326 71.6392 12.3459 72.4352C13.6184 73.2064 15.0062 73.5744 16.0496 73.7852C18.2388 74.2274 21.1017 74.384 24.3658 74.384V62.384ZM20.8618 66.464V18.272H8.86175V66.464H20.8618ZM14.8618 12.272H3.34175V24.272H14.8618V12.272ZM3.34175 12.272C4.54608 12.272 5.58567 12.7173 6.31412 13.295C6.95065 13.7999 7.21771 14.2938 7.26926 14.3926C7.33188 14.5126 7.29683 14.4798 7.21845 14.1951C7.14425 13.9256 7.05592 13.5215 6.96946 12.9533L-4.89396 14.7587C-4.63629 16.4519 -4.21166 18.3298 -3.36976 19.9434C-2.54988 21.5148 -0.487766 24.272 3.34175 24.272V12.272ZM6.98273 13.0453C6.82865 11.9154 6.74975 10.7465 6.74975 9.536H-5.25025C-5.25025 11.2695 -5.13715 12.9806 -4.90723 14.6667L6.98273 13.0453ZM6.74975 9.536C6.74975 8.32548 6.82865 7.15659 6.98273 6.02667L-4.90723 4.40532C-5.13715 6.09141 -5.25025 7.80251 -5.25025 9.536H6.74975ZM6.96946 6.11865C7.05592 5.55051 7.14425 5.14635 7.21845 4.87688C7.29683 4.59223 7.33188 4.55936 7.26926 4.67939C7.21771 4.7782 6.95065 5.27214 6.31412 5.77698C5.58567 6.35472 4.54608 6.8 3.34175 6.8V-5.2C-0.487766 -5.2 -2.54988 -2.44283 -3.36976 -0.8714C-4.21166 0.74224 -4.63629 2.62007 -4.89396 4.31334L6.96946 6.11865ZM3.34175 6.8H45.1018V-5.2H3.34175V6.8ZM45.1018 6.8C43.8974 6.8 42.8578 6.35472 42.1294 5.77698C41.4928 5.27214 41.2258 4.7782 41.1742 4.67939C41.1116 4.55936 41.1467 4.59223 41.2251 4.87688C41.2993 5.14635 41.3876 5.55051 41.474 6.11865L53.3375 4.31334C53.0798 2.62007 52.6552 0.742241 51.8133 -0.871399C50.9934 -2.44283 48.9313 -5.2 45.1018 -5.2V6.8ZM41.4608 6.02668C41.6149 7.15659 41.6938 8.32549 41.6938 9.536H53.6938C53.6938 7.80251 53.5807 6.0914 53.3507 4.40531L41.4608 6.02668ZM41.6938 9.536C41.6938 10.7465 41.6149 11.9154 41.4608 13.0453L53.3507 14.6667C53.5807 12.9806 53.6938 11.2695 53.6938 9.536H41.6938ZM41.474 12.9533C41.3876 13.5215 41.2993 13.9256 41.2251 14.1951C41.1467 14.4798 41.1116 14.5126 41.1742 14.3926C41.2258 14.2938 41.4928 13.7999 42.1294 13.295C42.8578 12.7173 43.8974 12.272 45.1018 12.272V24.272C48.9313 24.272 50.9934 21.5148 51.8133 19.9434C52.6552 18.3298 53.0798 16.4519 53.3375 14.7587L41.474 12.9533ZM45.1018 12.272H33.8698V24.272H45.1018V12.272ZM27.8698 18.272V66.464H39.8698V18.272H27.8698ZM61.643 68.576L61.5112 74.5746L61.5771 74.576H61.643V68.576ZM52.907 35.936H58.907V29.936H52.907V35.936ZM47.819 34.112L42.3475 36.5742L42.4234 36.7428L42.5095 36.9065L47.819 34.112ZM60.299 21.728L56.2051 26.1143L56.2448 26.1514L56.2852 26.1878L60.299 21.728ZM63.179 27.68H57.179L68.5193 30.4153L63.179 27.68ZM68.555 21.44L71.9482 26.3884L71.9628 26.3783L71.9774 26.3682L68.555 21.44ZM82.283 21.92L87.901 19.8132L87.8781 19.7522L87.8539 19.6917L82.283 21.92ZM81.611 29.504L75.7901 28.0488L75.7729 28.1177L75.7573 28.1869L81.611 29.504ZM76.811 36.128L74.1277 41.4946L74.3238 41.5926L74.5265 41.6761L76.811 36.128ZM64.379 67.904C64.379 66.1651 65.1239 64.8483 65.8107 64.0558C66.4371 63.3331 67.0854 62.947 67.3979 62.7787C67.7476 62.5904 68.0324 62.4876 68.1745 62.4403C68.3302 62.3884 68.441 62.3615 68.4838 62.3517C68.5715 62.3314 68.389 62.3753 67.7348 62.4257C66.5168 62.5194 64.5205 62.576 61.643 62.576V74.576C64.5895 74.576 66.9612 74.5206 68.6552 74.3903C69.457 74.3287 70.3665 74.2326 71.1822 74.0443C71.5382 73.9622 72.29 73.7735 73.0871 73.3443C73.4763 73.1347 76.379 71.5557 76.379 67.904H64.379ZM61.7748 62.5774C58.8925 62.5141 56.869 62.4212 55.6164 62.3111C54.9509 62.2525 54.7165 62.2065 54.7409 62.2119C54.7651 62.2172 54.851 62.2365 54.9786 62.2758C55.0925 62.3109 55.3412 62.3924 55.6553 62.5443C55.9187 62.6716 56.558 63.0031 57.2069 63.6591C57.898 64.3578 58.907 65.7651 58.907 67.808H46.907C46.907 69.8989 47.9387 71.3532 48.6754 72.0979C49.3697 72.7999 50.0773 73.1764 50.4317 73.3477C51.1598 73.6998 51.8402 73.8607 52.1651 73.9321C52.9175 74.0975 53.7751 74.1955 54.5656 74.2649C56.225 74.4108 58.5695 74.5099 61.5112 74.5746L61.7748 62.5774ZM58.907 67.808V35.936H46.907V67.808H58.907ZM52.907 29.936H50.315V41.936H52.907V29.936ZM50.315 29.936C51.0844 29.936 51.8585 30.1938 52.4631 30.6357C52.9891 31.02 53.1582 31.3739 53.1285 31.3175L42.5095 36.9065C43.777 39.3148 46.3026 41.936 50.315 41.936V29.936ZM53.2905 31.6498C53.1559 31.3507 52.955 30.6756 52.955 29.408H40.955C40.955 31.8524 41.3301 34.3133 42.3475 36.5742L53.2905 31.6498ZM52.955 29.408C52.955 27.9584 53.0639 26.8517 53.2253 26.0347C53.3885 25.2085 53.5783 24.8164 53.6527 24.6908C53.7042 24.6039 53.6244 24.7645 53.3526 24.9174C53.0863 25.0673 52.9369 25.04 53.099 25.04V13.04C48.9829 13.04 45.4595 14.9784 43.3293 18.5732C41.4909 21.6754 40.955 25.5556 40.955 29.408H52.955ZM53.099 25.04C54.619 25.04 55.5076 25.4633 56.2051 26.1143L64.3929 17.3417C61.2504 14.4086 57.339 13.04 53.099 13.04V25.04ZM56.2852 26.1878C57.1544 26.97 57.179 27.4084 57.179 27.68H69.179C69.179 23.4716 67.2836 19.942 64.3128 17.2682L56.2852 26.1878ZM68.5193 30.4153C69.4482 28.6016 70.6004 27.3126 71.9482 26.3884L65.1618 16.4916C62.0296 18.6394 59.5978 21.5104 57.8387 24.9447L68.5193 30.4153ZM71.9774 26.3682C73.4664 25.3342 74.6308 25.04 75.563 25.04V13.04C71.7592 13.04 68.2517 14.3458 65.1326 16.5118L71.9774 26.3682ZM75.563 25.04C76.2411 25.04 76.7499 25.0845 77.1156 25.1434C77.4845 25.2029 77.6459 25.2673 77.6635 25.2749C77.6727 25.2788 77.5056 25.2083 77.2816 24.9938C77.0433 24.7657 76.8405 24.4693 76.7121 24.1483L87.8539 19.6917C85.5918 14.0365 79.644 13.04 75.563 13.04V25.04ZM76.665 24.0268C76.5997 23.8525 76.5682 23.7263 76.5553 23.6691C76.542 23.6099 76.5413 23.5915 76.5453 23.6242C76.5493 23.6556 76.556 23.7208 76.5616 23.825C76.5671 23.9284 76.571 24.0605 76.571 24.224H88.571C88.571 22.9956 88.4788 21.3541 87.901 19.8132L76.665 24.0268ZM76.571 24.224C76.571 24.1586 76.5683 24.4177 76.4278 25.1907C76.2992 25.898 76.0919 26.8419 75.7901 28.0488L87.4319 30.9592C88.0526 28.4761 88.571 26.029 88.571 24.224H76.571ZM75.7573 28.1869C75.2085 30.626 74.748 31.7874 74.5421 32.1581L85.0319 37.9859C86.106 36.0526 86.8615 33.502 87.4647 30.8211L75.7573 28.1869ZM74.5421 32.1581C74.2441 32.6945 74.0817 32.9573 74.0267 33.0398C73.9841 33.1037 74.0839 32.9428 74.2945 32.7058C74.3899 32.5985 74.6647 32.2957 75.095 31.973C75.317 31.8065 75.6905 31.5509 76.1998 31.3217C76.6941 31.0993 77.5411 30.8 78.635 30.8V42.8C80.6712 42.8 82.0167 41.7817 82.295 41.573C82.7733 41.2143 83.1041 40.8575 83.2635 40.6782C83.6021 40.2972 83.8619 39.9203 84.0113 39.6962C84.3403 39.2027 84.6899 38.6014 85.0319 37.9859L74.5421 32.1581ZM78.635 30.8C78.8436 30.8 79.0197 30.8111 79.1512 30.8228C79.2851 30.8346 79.3997 30.8495 79.4892 30.8628C79.6638 30.8888 79.8016 30.9178 79.8861 30.9369C80.0507 30.974 80.1648 31.0085 80.196 31.018C80.2378 31.0307 80.2557 31.0371 80.2416 31.0323C80.2298 31.0282 80.2026 31.0187 80.1572 31.0019C79.9588 30.9288 79.6161 30.7943 79.0955 30.5799L74.5265 41.6761C75.0939 41.9097 75.5992 42.1112 76.0088 42.2621C76.2066 42.335 76.4509 42.4216 76.702 42.498C76.8252 42.5355 77.0163 42.591 77.2429 42.6421C77.371 42.6711 77.9271 42.8 78.635 42.8V30.8ZM79.4943 30.7614C77.9334 29.981 76.0731 29.36 74.027 29.36V41.36C73.8272 41.36 73.7277 41.3294 73.7514 41.336C73.7777 41.3432 73.9006 41.381 74.1277 41.4946L79.4943 30.7614ZM74.027 29.36C70.928 29.36 68.0197 30.7514 66.2221 33.5897C64.7177 35.965 64.379 38.7601 64.379 41.12H76.379C76.379 40.4582 76.433 40.0504 76.4776 39.8394C76.5233 39.6228 76.5327 39.7375 76.3599 40.0103C76.1615 40.3236 75.7913 40.7317 75.2255 41.0295C74.6773 41.318 74.2178 41.36 74.027 41.36V29.36ZM64.379 41.12V67.904H76.379V41.12H64.379ZM91.5455 33.152L86.3105 36.0836L88.5046 40.0018L92.8824 39.0012L91.5455 33.152ZM90.4895 21.44L88.0795 15.9453L87.8773 16.034L87.6822 16.1373L90.4895 21.44ZM119.002 23.552L114.48 27.4962L114.501 27.5203L114.522 27.5442L119.002 23.552ZM122.938 51.872H116.938V57.872H122.938V51.872ZM128.698 53.792L123.226 56.2542L123.276 56.3658L123.331 56.4753L128.698 53.792ZM127.929 65.696L122.627 62.8887L122.594 62.9503L122.563 63.0127L127.929 65.696ZM115.065 66.176L119.026 61.669L118.922 61.5774L118.814 61.4908L115.065 66.176ZM112.857 63.392L118.286 60.8372L114.168 52.0846L108.157 59.6636L112.857 63.392ZM87.3215 63.968L91.6465 59.8093L87.3215 63.968ZM106.521 36.512V42.512H112.521V36.512H106.521ZM105.658 32.384L101.415 36.6266L101.679 36.8908L101.974 37.1201L105.658 32.384ZM100.377 54.08L96.1349 58.3226L96.227 58.4148L96.3232 58.5029L100.377 54.08ZM106.521 53.696L110.764 57.9386L112.521 56.1813V53.696H106.521ZM106.521 46.304H112.521V40.304H106.521V46.304ZM96.7805 30.2204C95.1305 27.2739 94.8575 25.788 94.8575 25.376H82.8575C82.8575 28.932 84.3765 32.6301 86.3105 36.0836L96.7805 30.2204ZM94.8575 25.376C94.8575 24.8204 94.9403 24.8348 94.808 25.1541C94.7319 25.3375 94.5832 25.6231 94.3147 25.9337C94.0387 26.253 93.6917 26.5337 93.2968 26.7427L87.6822 16.1373C83.5574 18.321 82.8575 22.6624 82.8575 25.376H94.8575ZM92.8995 26.9347C95.4711 25.8068 99.5244 25.04 105.465 25.04V13.04C98.7346 13.04 92.8039 13.8732 88.0795 15.9453L92.8995 26.9347ZM105.465 25.04C111.16 25.04 113.531 26.4082 114.48 27.4962L123.523 19.6078C119.224 14.6798 112.571 13.04 105.465 13.04V25.04ZM114.522 27.5442C115.79 28.9666 116.938 31.6659 116.938 36.704H128.938C128.938 30.0941 127.461 24.0254 123.481 19.5598L114.522 27.5442ZM116.938 36.704V51.872H128.938V36.704H116.938ZM122.938 57.872H126.201V45.872H122.938V57.872ZM126.201 57.872C125.474 57.872 124.657 57.6257 123.983 57.1077C123.687 56.8802 123.494 56.6563 123.379 56.5002C123.322 56.4225 123.284 56.36 123.26 56.3188C123.237 56.2777 123.226 56.2547 123.226 56.2542L134.169 51.3298C133.606 50.0796 132.72 48.6886 131.3 47.5963C129.794 46.4383 128.017 45.872 126.201 45.872V57.872ZM123.331 56.4753C123.384 56.5823 123.657 57.2895 123.657 59.072H135.657C135.657 56.3745 135.291 53.5617 134.064 51.1087L123.331 56.4753ZM123.657 59.072C123.657 60.2389 123.367 61.4901 122.627 62.8887L133.232 68.5033C134.796 65.5499 135.657 62.3851 135.657 59.072H123.657ZM122.563 63.0127C122.322 63.4953 122.233 63.4535 122.469 63.2827C122.593 63.193 122.762 63.1015 122.962 63.0377C123.161 62.9746 123.323 62.96 123.418 62.96V74.96C128.253 74.96 131.515 71.9412 133.296 68.3793L122.563 63.0127ZM123.418 62.96C121.071 62.96 119.807 62.3554 119.026 61.669L111.105 70.683C114.548 73.7086 118.852 74.96 123.418 74.96V62.96ZM118.814 61.4908C118.553 61.282 118.399 61.077 118.286 60.8372L107.429 65.9468C108.34 67.883 109.658 69.534 111.317 70.8612L118.814 61.4908ZM108.157 59.6636C106.684 61.5199 104.12 62.96 99.1295 62.96V74.96C106.555 74.96 113.143 72.6881 117.558 67.1204L108.157 59.6636ZM99.1295 62.96C96.0676 62.96 93.7001 61.9451 91.6465 59.8093L82.9965 68.1267C87.3429 72.6469 92.8474 74.96 99.1295 74.96V62.96ZM91.6465 59.8093C89.502 57.5791 88.5215 55.1259 88.5215 52.16H76.5215C76.5215 58.2821 78.741 63.7009 82.9965 68.1267L91.6465 59.8093ZM88.5215 52.16C88.5215 48.1796 89.6607 46.1885 91.0496 45.0275C92.6444 43.6944 95.6904 42.512 101.241 42.512V30.512C94.3126 30.512 87.9986 31.9376 83.3534 35.8205C78.5023 39.8755 76.5215 45.7084 76.5215 52.16H88.5215ZM101.241 42.512H106.521V30.512H101.241V42.512ZM112.521 36.512V35.552H100.521V36.512H112.521ZM112.521 35.552C112.521 34.4328 112.431 33.1688 112.094 31.9333C111.771 30.7481 111.052 28.9789 109.341 27.6479L101.974 37.1201C100.839 36.2371 100.552 35.2199 100.517 35.0907C100.468 34.9112 100.521 35.0072 100.521 35.552H112.521ZM109.9 28.1413C108.394 26.6355 106.552 26.1373 105.543 25.9304C104.367 25.6892 103.113 25.616 101.913 25.616V37.616C102.285 37.616 102.574 37.6281 102.79 37.6453C103.011 37.6628 103.116 37.6824 103.132 37.6856C103.158 37.691 103.001 37.6628 102.736 37.5472C102.48 37.4356 101.959 37.1709 101.415 36.6266L109.9 28.1413ZM101.913 25.616C98.7951 25.616 94.8127 26.2505 90.2085 27.3028L92.8824 39.0012C97.2383 38.0055 100.168 37.616 101.913 37.616V25.616ZM93.2255 50.816C93.2255 53.3233 93.9359 56.1236 96.1349 58.3226L104.62 49.8374C104.909 50.126 105.084 50.444 105.171 50.6911C105.249 50.9121 105.225 50.9846 105.225 50.816H93.2255ZM96.3232 58.5029C98.3182 60.3317 100.776 61.136 103.257 61.136V49.136C103.298 49.136 103.479 49.1434 103.739 49.2387C104.009 49.3376 104.249 49.4899 104.432 49.6571L96.3232 58.5029ZM103.257 61.136C106.257 61.136 108.822 59.8805 110.764 57.9386L102.279 49.4534C102.25 49.4823 102.34 49.3853 102.564 49.2865C102.8 49.1821 103.051 49.136 103.257 49.136V61.136ZM112.521 53.696V46.304H100.521V53.696H112.521ZM106.521 40.304H103.833V52.304H106.521V40.304ZM103.833 40.304C101.404 40.304 98.4738 40.8987 96.1798 43.1449C93.8623 45.4141 93.2255 48.3547 93.2255 50.816H105.225C105.225 50.2693 105.357 50.9539 104.575 51.7191C103.817 52.4613 103.191 52.304 103.833 52.304V40.304ZM163.699 51.776V45.776H162.052L160.636 46.6169L163.699 51.776ZM166.003 56.768L160.091 57.7912L160.103 57.857L160.115 57.9225L166.003 56.768ZM166.483 65.792L169.655 70.8854L170.474 70.375L171.093 69.6331L166.483 65.792ZM137.491 62.432L133.092 66.5123L133.123 66.5453L133.154 66.5779L137.491 62.432ZM137.395 26.048L132.884 22.0926L132.868 22.1102L132.853 22.1279L137.395 26.048ZM167.731 23.936L163.055 27.6953L163.071 27.7155L163.088 27.7354L167.731 23.936ZM167.827 32.096L173.603 33.7205L173.621 33.6581L173.637 33.5953L167.827 32.096ZM163.315 39.2L164.77 45.0209L165.024 44.9575L165.271 44.8722L163.315 39.2ZM160.435 38.144L164.858 34.0897L164.77 33.9935L164.678 33.9014L160.435 38.144ZM150.547 36.704L155.443 40.1721L155.443 40.1721L150.547 36.704ZM142.915 44.192C142.915 47.9113 143.587 51.7969 145.903 54.8636C148.459 58.248 152.203 59.6 156.019 59.6V47.6C155.491 47.6 155.311 47.5125 155.334 47.523C155.346 47.5282 155.381 47.5463 155.423 47.5794C155.464 47.6123 155.483 47.6366 155.48 47.6324C155.427 47.5631 154.915 46.7447 154.915 44.192H142.915ZM156.019 59.6C159.863 59.6 163.556 58.8393 166.762 56.9351L160.636 46.6169C159.747 47.1447 158.319 47.6 156.019 47.6V59.6ZM163.699 57.776C162.023 57.776 160.831 56.9965 160.221 56.4099C159.937 56.1365 159.764 55.8958 159.676 55.7615C159.586 55.6238 159.548 55.539 159.548 55.5383C159.546 55.5348 159.567 55.5802 159.604 55.6887C159.641 55.7954 159.688 55.9449 159.742 56.1438C159.85 56.5469 159.97 57.0885 160.091 57.7912L171.915 55.7448C171.6 53.9206 171.158 52.059 170.443 50.5096C169.979 49.505 168.094 45.776 163.699 45.776V57.776ZM160.115 57.9225C160.767 61.2442 160.963 62.9377 160.963 63.488H172.963C172.963 61.6063 172.52 58.8198 171.891 55.6135L160.115 57.9225ZM160.963 63.488C160.963 63.825 160.936 63.8621 160.969 63.7043C160.988 63.6152 161.037 63.4059 161.155 63.1243C161.271 62.845 161.487 62.4146 161.874 61.9509L171.093 69.6331C172.142 68.3743 172.54 67.0033 172.717 66.1517C172.91 65.2259 172.963 64.303 172.963 63.488H160.963ZM163.312 60.6986C161.221 62.0007 157.828 62.96 152.563 62.96V74.96C159.074 74.96 164.962 73.8073 169.655 70.8854L163.312 60.6986ZM152.563 62.96C148.355 62.96 144.885 61.4839 141.828 58.2861L133.154 66.5779C138.417 72.0841 144.996 74.96 152.563 74.96V62.96ZM141.89 58.3517C139.067 55.3078 137.347 50.9194 137.347 44.48H125.347C125.347 53.1446 127.724 60.7242 133.092 66.5123L141.89 58.3517ZM137.347 44.48C137.347 37.9535 139.052 33.3121 141.938 29.9681L132.853 22.1279C127.675 28.1279 125.347 35.7745 125.347 44.48H137.347ZM141.907 30.0034C144.763 26.7458 148.468 25.04 153.619 25.04V13.04C145.33 13.04 138.22 16.0062 132.884 22.0926L141.907 30.0034ZM153.619 25.04C159.703 25.04 162.122 26.535 163.055 27.6953L172.408 20.1767C168.092 14.809 161.104 13.04 153.619 13.04V25.04ZM163.088 27.7354C162.745 27.3171 162.624 26.9569 162.591 26.8347C162.561 26.7258 162.595 26.7895 162.595 27.104H174.595C174.595 25.0309 174.196 22.3617 172.375 20.1366L163.088 27.7354ZM162.595 27.104C162.595 27.7517 162.462 28.8752 162.018 30.5967L173.637 33.5953C174.217 31.3488 174.595 29.1443 174.595 27.104H162.595ZM162.051 30.4715C161.561 32.2157 161.092 33.2211 160.77 33.7272C160.442 34.2442 160.553 33.8059 161.359 33.5278L165.271 44.8722C167.934 43.9541 169.724 42.0118 170.9 40.1608C172.083 38.2989 172.942 36.0723 173.603 33.7205L162.051 30.4715ZM161.86 33.3791C162.019 33.3395 162.14 33.3188 162.209 33.3084C162.281 33.2976 162.326 33.2937 162.337 33.2927C162.354 33.2913 162.303 33.296 162.163 33.296V45.296C162.798 45.296 163.78 45.2684 164.77 45.0209L161.86 33.3791ZM162.163 33.296C163.607 33.296 164.524 33.8828 164.723 34.0157C164.984 34.1892 165.03 34.2776 164.858 34.0897L156.012 42.1983C156.544 42.7784 157.231 43.4428 158.067 44.0003C158.842 44.5172 160.272 45.296 162.163 45.296V33.296ZM164.678 33.9014C163.245 32.4687 161.752 31.1891 160.209 30.2344C158.728 29.3172 156.722 28.4 154.387 28.4V40.4C153.589 40.4 153.359 40.1068 153.893 40.4376C154.367 40.7309 155.129 41.3233 156.193 42.3866L164.678 33.9014ZM154.387 28.4C150.435 28.4 147.515 30.6041 145.651 33.2359L155.443 40.1721C155.628 39.9113 155.643 39.9813 155.41 40.121C155.29 40.193 155.128 40.2684 154.932 40.3232C154.735 40.3781 154.548 40.4 154.387 40.4V28.4ZM145.651 33.2359C143.458 36.3316 142.915 40.3932 142.915 44.192H154.915C154.915 42.7539 155.031 41.7165 155.186 41.0057C155.344 40.2807 155.5 40.0924 155.443 40.1721L145.651 33.2359ZM180.675 0.0319996L180.886 -5.96427L180.781 -5.968H180.675V0.0319996ZM188.835 38.144H182.835L194.112 40.9989L188.835 38.144ZM198.339 20.576L203.616 23.4309L203.701 23.2745L203.776 23.1133L198.339 20.576ZM216.099 20.096L221.214 23.2325L224.763 17.4437L218.582 14.6338L216.099 20.096ZM203.619 40.448L198.504 37.3115L196.707 40.2415L198.326 43.2735L203.619 40.448ZM218.019 67.424L223.385 64.7407L223.35 64.6691L223.312 64.5985L218.019 67.424ZM214.371 68L214.071 62.0075L213.991 62.0115L213.911 62.0177L214.371 68ZM198.243 67.424L192.763 69.8677L193.06 70.5328L193.507 71.1076L198.243 67.424ZM188.739 46.112L194.219 43.6683L182.739 46.112H188.739ZM177.939 1.568C177.939 2.99309 177.393 4.17831 176.732 4.99156C176.144 5.71462 175.536 6.07011 175.284 6.20298C174.822 6.44673 174.642 6.41681 175.162 6.32535C176.086 6.16281 177.845 6.032 180.675 6.032V-5.968C177.68 -5.968 175.071 -5.84281 173.084 -5.49336C172.148 -5.32882 170.876 -5.03873 169.685 -4.41098C168.636 -3.85743 165.939 -2.06307 165.939 1.568H177.939ZM180.463 6.02827C183.129 6.12235 184.885 6.26565 185.888 6.41903C186.444 6.50413 186.435 6.54463 186.153 6.43526C186.035 6.3895 185.451 6.16276 184.798 5.60226C184.109 5.01026 182.835 3.56627 182.835 1.27999H194.835C194.835 -1.16628 193.476 -2.76327 192.616 -3.50127C191.794 -4.20777 190.954 -4.57351 190.496 -4.75127C189.535 -5.12464 188.505 -5.32014 187.702 -5.44304C185.985 -5.70566 183.661 -5.86635 180.886 -5.96427L180.463 6.02827ZM182.835 1.27999V38.144H194.835V1.27999H182.835ZM194.112 40.9989L203.616 23.4309L193.061 17.7211L183.557 35.2891L194.112 40.9989ZM203.776 23.1133C203.375 23.9724 202.832 24.5356 202.436 24.8627C202.049 25.1826 201.723 25.3446 201.584 25.4082C201.333 25.522 201.32 25.4819 201.757 25.4047C202.603 25.2555 204.121 25.136 206.499 25.136V13.136C203.884 13.136 201.547 13.2565 199.672 13.5873C198.749 13.7501 197.66 14.01 196.618 14.4838C195.699 14.9017 193.902 15.8956 192.902 18.0387L203.776 23.1133ZM206.499 25.136C208.891 25.136 210.721 25.2137 212.046 25.3462C213.541 25.4957 213.86 25.6691 213.616 25.5582L218.582 14.6338C216.929 13.8829 214.945 13.5763 213.24 13.4058C211.365 13.2183 209.098 13.136 206.499 13.136V25.136ZM210.984 16.9595L198.504 37.3115L208.734 43.5845L221.214 23.2325L210.984 16.9595ZM198.326 43.2735L212.726 70.2495L223.312 64.5985L208.912 37.6225L198.326 43.2735ZM212.652 70.1073C212.179 69.1616 211.879 67.9101 212.104 66.5158C212.32 65.1735 212.943 64.1947 213.47 63.5874C214.381 62.5357 215.399 62.1299 215.578 62.0559C216.13 61.8288 216.497 61.7972 216.267 61.8334C215.992 61.8768 215.314 61.9453 214.071 62.0075L214.67 73.9925C215.987 73.9267 217.198 73.8352 218.139 73.6866C218.517 73.6268 219.324 73.4912 220.147 73.1521C220.463 73.0221 221.574 72.5583 222.538 71.4466C223.09 70.8093 223.729 69.8 223.95 68.4267C224.18 67.0014 223.874 65.7184 223.385 64.7407L212.652 70.1073ZM213.911 62.0177C211.5 62.2031 209.585 62.288 208.131 62.288V74.288C210.004 74.288 212.25 74.1809 214.831 73.9823L213.911 62.0177ZM208.131 62.288C205.113 62.288 202.959 62.2158 201.573 62.0948C200.86 62.0324 200.532 61.9718 200.462 61.9557C200.422 61.9464 200.619 61.9862 200.935 62.1235C201.125 62.2061 202.118 62.6334 202.979 63.7404L193.507 71.1076C194.48 72.3586 195.673 72.9209 196.153 73.1295C196.759 73.3928 197.336 73.5496 197.764 73.6483C198.63 73.8482 199.594 73.9676 200.528 74.0492C202.439 74.2162 205.005 74.288 208.131 74.288V62.288ZM203.723 64.9803L194.219 43.6683L183.259 48.5557L192.763 69.8677L203.723 64.9803ZM182.739 46.112V67.328H194.739V46.112H182.739ZM182.739 67.328C182.739 65.5506 183.549 64.2198 184.294 63.4496C184.947 62.774 185.58 62.4769 185.78 62.3886C186.177 62.2123 186.289 62.2487 185.75 62.3284C184.792 62.4699 183.039 62.576 180.291 62.576V74.576C183.175 74.576 185.645 74.4741 187.504 74.1996C188.372 74.0713 189.54 73.8477 190.642 73.3594C191.254 73.0881 194.739 71.46 194.739 67.328H182.739ZM180.291 62.576C177.57 62.576 175.817 62.4781 174.847 62.3443C174.301 62.269 174.385 62.231 174.755 62.3839C174.932 62.4571 175.566 62.7299 176.237 63.3776C176.999 64.1131 177.939 65.493 177.939 67.424H165.939C165.939 69.547 166.966 71.1069 167.902 72.0104C168.746 72.8261 169.642 73.2549 170.167 73.4721C171.232 73.913 172.361 74.115 173.207 74.2317C175.02 74.4819 177.443 74.576 180.291 74.576V62.576ZM177.939 67.424V1.568H165.939V67.424H177.939ZM225.66 33.152L220.425 36.0836L222.62 40.0018L226.997 39.0012L225.66 33.152ZM224.604 21.44L222.195 15.9453L221.992 16.034L221.797 16.1373L224.604 21.44ZM253.116 23.552L248.595 27.4962L248.616 27.5203L248.637 27.5442L253.116 23.552ZM257.052 51.872H251.052V57.872H257.052V51.872ZM262.812 53.792L257.341 56.2542L257.391 56.3658L257.446 56.4753L262.812 53.792ZM262.044 65.696L256.742 62.8887L256.709 62.9503L256.678 63.0127L262.044 65.696ZM249.18 66.176L253.141 61.669L253.037 61.5774L252.929 61.4908L249.18 66.176ZM246.972 63.392L252.401 60.8372L248.283 52.0846L242.272 59.6636L246.972 63.392ZM221.436 63.968L225.761 59.8093L221.436 63.968ZM240.636 36.512V42.512H246.636V36.512H240.636ZM239.772 32.384L235.53 36.6266L235.794 36.8908L236.089 37.1201L239.772 32.384ZM234.492 54.08L230.25 58.3226L230.342 58.4148L230.438 58.5029L234.492 54.08ZM240.636 53.696L244.879 57.9386L246.636 56.1813V53.696H240.636ZM240.636 46.304H246.636V40.304H240.636V46.304ZM230.896 30.2204C229.245 27.2739 228.972 25.788 228.972 25.376H216.972C216.972 28.932 218.492 32.6301 220.425 36.0836L230.896 30.2204ZM228.972 25.376C228.972 24.8204 229.055 24.8348 228.923 25.1541C228.847 25.3375 228.698 25.6231 228.43 25.9337C228.154 26.253 227.807 26.5337 227.412 26.7427L221.797 16.1373C217.672 18.321 216.972 22.6624 216.972 25.376H228.972ZM227.014 26.9347C229.586 25.8068 233.639 25.04 239.58 25.04V13.04C232.85 13.04 226.919 13.8732 222.195 15.9453L227.014 26.9347ZM239.58 25.04C245.275 25.04 247.646 26.4082 248.595 27.4962L257.638 19.6078C253.339 14.6798 246.686 13.04 239.58 13.04V25.04ZM248.637 27.5442C249.905 28.9666 251.052 31.6659 251.052 36.704H263.052C263.052 30.0941 261.576 24.0254 257.596 19.5598L248.637 27.5442ZM251.052 36.704V51.872H263.052V36.704H251.052ZM257.052 57.872H260.316V45.872H257.052V57.872ZM260.316 57.872C259.589 57.872 258.772 57.6257 258.098 57.1077C257.802 56.8802 257.609 56.6563 257.494 56.5002C257.437 56.4225 257.399 56.36 257.375 56.3188C257.352 56.2777 257.341 56.2547 257.341 56.2542L268.284 51.3298C267.721 50.0796 266.835 48.6886 265.415 47.5963C263.909 46.4383 262.132 45.872 260.316 45.872V57.872ZM257.446 56.4753C257.499 56.5823 257.772 57.2895 257.772 59.072H269.772C269.772 56.3745 269.406 53.5617 268.179 51.1087L257.446 56.4753ZM257.772 59.072C257.772 60.2389 257.482 61.4901 256.742 62.8887L267.347 68.5033C268.911 65.5499 269.772 62.3851 269.772 59.072H257.772ZM256.678 63.0127C256.437 63.4953 256.348 63.4535 256.584 63.2827C256.708 63.193 256.877 63.1015 257.077 63.0377C257.276 62.9746 257.438 62.96 257.532 62.96V74.96C262.368 74.96 265.63 71.9412 267.411 68.3793L256.678 63.0127ZM257.532 62.96C255.186 62.96 253.922 62.3554 253.141 61.669L245.22 70.683C248.663 73.7086 252.967 74.96 257.532 74.96V62.96ZM252.929 61.4908C252.668 61.282 252.514 61.077 252.401 60.8372L241.544 65.9468C242.455 67.883 243.773 69.534 245.432 70.8612L252.929 61.4908ZM242.272 59.6636C240.799 61.5199 238.235 62.96 233.244 62.96V74.96C240.67 74.96 247.258 72.6881 251.673 67.1204L242.272 59.6636ZM233.244 62.96C230.183 62.96 227.815 61.9451 225.761 59.8093L217.111 68.1267C221.458 72.6469 226.962 74.96 233.244 74.96V62.96ZM225.761 59.8093C223.617 57.5791 222.636 55.1259 222.636 52.16H210.636C210.636 58.2821 212.856 63.7009 217.111 68.1267L225.761 59.8093ZM222.636 52.16C222.636 48.1796 223.776 46.1885 225.165 45.0275C226.759 43.6944 229.805 42.512 235.356 42.512V30.512C228.428 30.512 222.114 31.9376 217.468 35.8205C212.617 39.8755 210.636 45.7084 210.636 52.16H222.636ZM235.356 42.512H240.636V30.512H235.356V42.512ZM246.636 36.512V35.552H234.636V36.512H246.636ZM246.636 35.552C246.636 34.4328 246.546 33.1688 246.209 31.9333C245.886 30.7481 245.167 28.9789 243.456 27.6479L236.089 37.1201C234.954 36.2371 234.667 35.2199 234.632 35.0907C234.583 34.9112 234.636 35.0072 234.636 35.552H246.636ZM244.015 28.1413C242.509 26.6355 240.667 26.1373 239.658 25.9304C238.482 25.6892 237.228 25.616 236.028 25.616V37.616C236.4 37.616 236.689 37.6281 236.905 37.6453C237.126 37.6628 237.231 37.6824 237.247 37.6856C237.273 37.691 237.116 37.6628 236.851 37.5472C236.595 37.4356 236.074 37.1709 235.53 36.6266L244.015 28.1413ZM236.028 25.616C232.91 25.616 228.928 26.2505 224.324 27.3028L226.997 39.0012C231.353 38.0055 234.283 37.616 236.028 37.616V25.616ZM227.34 50.816C227.34 53.3233 228.051 56.1236 230.25 58.3226L238.735 49.8374C239.024 50.126 239.199 50.444 239.286 50.6911C239.364 50.9121 239.34 50.9846 239.34 50.816H227.34ZM230.438 58.5029C232.433 60.3317 234.891 61.136 237.372 61.136V49.136C237.413 49.136 237.594 49.1434 237.854 49.2387C238.124 49.3376 238.364 49.4899 238.547 49.6571L230.438 58.5029ZM237.372 61.136C240.372 61.136 242.937 59.8805 244.879 57.9386L236.394 49.4534C236.365 49.4823 236.455 49.3853 236.679 49.2865C236.915 49.1821 237.166 49.136 237.372 49.136V61.136ZM246.636 53.696V46.304H234.636V53.696H246.636ZM240.636 40.304H237.948V52.304H240.636V40.304ZM237.948 40.304C235.519 40.304 232.589 40.8987 230.295 43.1449C227.977 45.4141 227.34 48.3547 227.34 50.816H239.34C239.34 50.2693 239.472 50.9539 238.69 51.7191C237.932 52.4613 237.306 52.304 237.948 52.304V40.304Z" fill="#367864"/>
</svg>
